<svg width="297" height="342" viewBox="0 0 297 342" fill="none" xmlns="http://www.w3.org/2000/svg">
<path fill-rule="evenodd" clip-rule="evenodd" d="M144.09 63L68.0903 120L68.0903 263.5L144.09 307.686V63ZM125.09 98.25V278.958L117.09 274.315V104.25L125.09 98.25ZM108.09 111V269.091L99.0903 263.867V117.75L108.09 111ZM90.0903 124.5V258.643L82.0903 254V130.5L90.0903 124.5Z" fill="black"/>
<path fill-rule="evenodd" clip-rule="evenodd" d="M228.09 120L152.09 63V307.686L228.09 263.5L228.09 120ZM171.09 278.958V98.25L179.09 104.25V274.315L171.09 278.958ZM188.09 269.091V111L197.09 117.75V263.867L188.09 269.091ZM206.09 258.643V124.5L214.09 130.5V254L206.09 258.643Z" fill="black"/>
<path fill-rule="evenodd" clip-rule="evenodd" d="M233.09 149L267.78 175.017V240.517L233.09 260.686V149ZM241.763 165.09V247.573L245.414 245.454V167.828L241.763 165.09ZM249.522 170.909V243.069L253.63 240.685V173.99L249.522 170.909ZM257.738 177.071V238.301L261.39 236.181V179.81L257.738 177.071Z" fill="black"/>
<path fill-rule="evenodd" clip-rule="evenodd" d="M28.0903 175.017L62.7803 149V260.686L28.0903 240.517L28.0903 175.017ZM54.1078 247.573V165.09L50.4562 167.828V245.454L54.1078 247.573ZM46.3482 243.069V170.909L42.2402 173.99V240.685L46.3482 243.069ZM38.1321 238.301V177.071L34.4806 179.81V236.181L38.1321 238.301Z" fill="black"/>
<path fill-rule="evenodd" clip-rule="evenodd" d="M296.181 85.5L148.09 0L0 85.5V256.5L148.09 342L296.181 256.5V85.5ZM277.994 96L148.09 21L18.1865 96V246L148.09 321L277.994 246V96Z" fill="black"/>
</svg>
