<svg width="809" height="342" viewBox="0 0 809 342" fill="none" xmlns="http://www.w3.org/2000/svg">
<path fill-rule="evenodd" clip-rule="evenodd" d="M144.09 63L68.0903 120L68.0903 263.5L144.09 307.686V63ZM125.09 98.25V278.958L117.09 274.315V104.25L125.09 98.25ZM108.09 111V269.091L99.0903 263.867V117.75L108.09 111ZM90.0903 124.5V258.643L82.0903 254V130.5L90.0903 124.5Z" fill="white"/>
<path fill-rule="evenodd" clip-rule="evenodd" d="M228.09 120L152.09 63V307.686L228.09 263.5L228.09 120ZM171.09 278.958V98.25L179.09 104.25V274.315L171.09 278.958ZM188.09 269.091V111L197.09 117.75V263.867L188.09 269.091ZM206.09 258.643V124.5L214.09 130.5V254L206.09 258.643Z" fill="white"/>
<path fill-rule="evenodd" clip-rule="evenodd" d="M233.09 149L267.78 175.017V240.517L233.09 260.686V149ZM241.763 165.09V247.573L245.414 245.454V167.828L241.763 165.09ZM249.522 170.909V243.069L253.63 240.685V173.99L249.522 170.909ZM257.738 177.071V238.301L261.39 236.181V179.81L257.738 177.071Z" fill="white"/>
<path fill-rule="evenodd" clip-rule="evenodd" d="M28.0903 175.017L62.7803 149V260.686L28.0903 240.517L28.0903 175.017ZM54.1078 247.573V165.09L50.4562 167.828V245.454L54.1078 247.573ZM46.3482 243.069V170.909L42.2402 173.99V240.685L46.3482 243.069ZM38.1321 238.301V177.071L34.4806 179.81V236.181L38.1321 238.301Z" fill="white"/>
<path fill-rule="evenodd" clip-rule="evenodd" d="M296.181 85.5L148.09 0L0 85.5V256.5L148.09 342L296.181 256.5V85.5ZM277.994 96L148.09 21L18.1865 96V246L148.09 321L277.994 246V96Z" fill="white"/>
<path d="M391.466 101.182V171H378.716L348.341 127.057H347.83V171H333.068V101.182H346.023L376.159 145.091H376.773V101.182H391.466ZM467.821 136.091C467.821 143.705 466.378 150.182 463.491 155.523C460.628 160.864 456.719 164.943 451.764 167.761C446.832 170.557 441.287 171.955 435.128 171.955C428.923 171.955 423.355 170.545 418.423 167.727C413.491 164.909 409.594 160.83 406.73 155.489C403.866 150.148 402.435 143.682 402.435 136.091C402.435 128.477 403.866 122 406.73 116.659C409.594 111.318 413.491 107.25 418.423 104.455C423.355 101.636 428.923 100.227 435.128 100.227C441.287 100.227 446.832 101.636 451.764 104.455C456.719 107.25 460.628 111.318 463.491 116.659C466.378 122 467.821 128.477 467.821 136.091ZM452.855 136.091C452.855 131.159 452.116 127 450.639 123.614C449.185 120.227 447.128 117.659 444.469 115.909C441.81 114.159 438.696 113.284 435.128 113.284C431.56 113.284 428.446 114.159 425.787 115.909C423.128 117.659 421.06 120.227 419.582 123.614C418.128 127 417.401 131.159 417.401 136.091C417.401 141.023 418.128 145.182 419.582 148.568C421.06 151.955 423.128 154.523 425.787 156.273C428.446 158.023 431.56 158.898 435.128 158.898C438.696 158.898 441.81 158.023 444.469 156.273C447.128 154.523 449.185 151.955 450.639 148.568C452.116 145.182 452.855 141.023 452.855 136.091ZM487.432 101.182L504.307 154.227H504.955L521.864 101.182H538.227L514.159 171H495.136L471.034 101.182H487.432ZM549.384 171H533.565L557.668 101.182H576.69L600.759 171H584.94L567.452 117.136H566.906L549.384 171ZM548.395 143.557H585.759V155.08H548.395V143.557ZM609.162 171V101.182H636.707C641.98 101.182 646.48 102.125 650.207 104.011C653.957 105.875 656.81 108.523 658.764 111.955C660.741 115.364 661.73 119.375 661.73 123.989C661.73 128.625 660.73 132.614 658.73 135.955C656.73 139.273 653.832 141.818 650.037 143.591C646.264 145.364 641.696 146.25 636.332 146.25H617.889V134.386H633.946C636.764 134.386 639.105 134 640.969 133.227C642.832 132.455 644.219 131.295 645.128 129.75C646.06 128.205 646.526 126.284 646.526 123.989C646.526 121.67 646.06 119.716 645.128 118.125C644.219 116.534 642.821 115.33 640.935 114.511C639.071 113.67 636.719 113.25 633.878 113.25H623.923V171H609.162ZM646.866 139.227L664.219 171H647.923L630.946 139.227H646.866ZM733.764 125.625H718.832C718.56 123.693 718.003 121.977 717.162 120.477C716.321 118.955 715.241 117.659 713.923 116.591C712.605 115.523 711.082 114.705 709.355 114.136C707.651 113.568 705.798 113.284 703.798 113.284C700.185 113.284 697.037 114.182 694.355 115.977C691.673 117.75 689.594 120.341 688.116 123.75C686.639 127.136 685.901 131.25 685.901 136.091C685.901 141.068 686.639 145.25 688.116 148.636C689.616 152.023 691.707 154.58 694.389 156.307C697.071 158.034 700.173 158.898 703.696 158.898C705.673 158.898 707.503 158.636 709.185 158.114C710.889 157.591 712.401 156.83 713.719 155.83C715.037 154.807 716.128 153.568 716.991 152.114C717.878 150.659 718.491 149 718.832 147.136L733.764 147.205C733.378 150.409 732.412 153.5 730.866 156.477C729.344 159.432 727.287 162.08 724.696 164.42C722.128 166.739 719.06 168.58 715.491 169.943C711.946 171.284 707.935 171.955 703.457 171.955C697.23 171.955 691.662 170.545 686.753 167.727C681.866 164.909 678.003 160.83 675.162 155.489C672.344 150.148 670.935 143.682 670.935 136.091C670.935 128.477 672.366 122 675.23 116.659C678.094 111.318 681.98 107.25 686.889 104.455C691.798 101.636 697.321 100.227 703.457 100.227C707.503 100.227 711.253 100.795 714.707 101.932C718.185 103.068 721.264 104.727 723.946 106.909C726.628 109.068 728.81 111.716 730.491 114.852C732.196 117.989 733.287 121.58 733.764 125.625ZM755.071 171H739.253L763.355 101.182H782.378L806.446 171H790.628L773.139 117.136H772.594L755.071 171ZM754.082 143.557H791.446V155.08H754.082V143.557Z" fill="white"/>
<path d="M329.516 214.268C329.516 209.644 330.581 205.496 332.712 201.824C334.888 198.152 337.812 195.296 341.484 193.256C345.201 191.171 349.259 190.128 353.656 190.128C358.688 190.128 363.153 191.375 367.052 193.868C370.996 196.316 373.852 199.807 375.62 204.34H366.304C365.08 201.847 363.38 199.988 361.204 198.764C359.028 197.54 356.512 196.928 353.656 196.928C350.528 196.928 347.74 197.631 345.292 199.036C342.844 200.441 340.917 202.459 339.512 205.088C338.152 207.717 337.472 210.777 337.472 214.268C337.472 217.759 338.152 220.819 339.512 223.448C340.917 226.077 342.844 228.117 345.292 229.568C347.74 230.973 350.528 231.676 353.656 231.676C356.512 231.676 359.028 231.064 361.204 229.84C363.38 228.616 365.08 226.757 366.304 224.264H375.62C373.852 228.797 370.996 232.288 367.052 234.736C363.153 237.184 358.688 238.408 353.656 238.408C349.213 238.408 345.156 237.388 341.484 235.348C337.812 233.263 334.888 230.384 332.712 226.712C330.581 223.04 329.516 218.892 329.516 214.268ZM400.946 238.612C397.41 238.612 394.214 237.819 391.358 236.232C388.502 234.6 386.258 232.333 384.626 229.432C382.994 226.485 382.178 223.085 382.178 219.232C382.178 215.424 383.016 212.047 384.694 209.1C386.371 206.153 388.66 203.887 391.562 202.3C394.463 200.713 397.704 199.92 401.286 199.92C404.867 199.92 408.108 200.713 411.01 202.3C413.911 203.887 416.2 206.153 417.878 209.1C419.555 212.047 420.394 215.424 420.394 219.232C420.394 223.04 419.532 226.417 417.81 229.364C416.087 232.311 413.73 234.6 410.738 236.232C407.791 237.819 404.527 238.612 400.946 238.612ZM400.946 231.88C402.94 231.88 404.799 231.404 406.522 230.452C408.29 229.5 409.718 228.072 410.806 226.168C411.894 224.264 412.438 221.952 412.438 219.232C412.438 216.512 411.916 214.223 410.874 212.364C409.831 210.46 408.448 209.032 406.726 208.08C405.003 207.128 403.144 206.652 401.15 206.652C399.155 206.652 397.296 207.128 395.574 208.08C393.896 209.032 392.559 210.46 391.562 212.364C390.564 214.223 390.066 216.512 390.066 219.232C390.066 223.267 391.086 226.395 393.126 228.616C395.211 230.792 397.818 231.88 400.946 231.88ZM446.961 199.92C449.908 199.92 452.537 200.532 454.849 201.756C457.206 202.98 459.042 204.793 460.357 207.196C461.672 209.599 462.329 212.5 462.329 215.9V238H454.645V217.056C454.645 213.701 453.806 211.14 452.129 209.372C450.452 207.559 448.162 206.652 445.261 206.652C442.36 206.652 440.048 207.559 438.325 209.372C436.648 211.14 435.809 213.701 435.809 217.056V238H428.057V200.532H435.809V204.816C437.078 203.275 438.688 202.073 440.637 201.212C442.632 200.351 444.74 199.92 446.961 199.92ZM485.817 238.612C482.871 238.612 480.219 238.091 477.861 237.048C475.549 235.96 473.713 234.509 472.353 232.696C470.993 230.837 470.268 228.775 470.177 226.508H478.201C478.337 228.095 479.085 229.432 480.445 230.52C481.851 231.563 483.596 232.084 485.681 232.084C487.857 232.084 489.535 231.676 490.713 230.86C491.937 229.999 492.549 228.911 492.549 227.596C492.549 226.191 491.869 225.148 490.509 224.468C489.195 223.788 487.087 223.04 484.185 222.224C481.375 221.453 479.085 220.705 477.317 219.98C475.549 219.255 474.008 218.144 472.693 216.648C471.424 215.152 470.789 213.18 470.789 210.732C470.789 208.737 471.379 206.924 472.557 205.292C473.736 203.615 475.413 202.3 477.589 201.348C479.811 200.396 482.349 199.92 485.205 199.92C489.467 199.92 492.889 201.008 495.473 203.184C498.103 205.315 499.508 208.239 499.689 211.956H491.937C491.801 210.279 491.121 208.941 489.897 207.944C488.673 206.947 487.019 206.448 484.933 206.448C482.893 206.448 481.329 206.833 480.241 207.604C479.153 208.375 478.609 209.395 478.609 210.664C478.609 211.661 478.972 212.5 479.697 213.18C480.423 213.86 481.307 214.404 482.349 214.812C483.392 215.175 484.933 215.651 486.973 216.24C489.693 216.965 491.915 217.713 493.637 218.484C495.405 219.209 496.924 220.297 498.193 221.748C499.463 223.199 500.12 225.125 500.165 227.528C500.165 229.659 499.576 231.563 498.397 233.24C497.219 234.917 495.541 236.232 493.365 237.184C491.235 238.136 488.719 238.612 485.817 238.612ZM517.585 206.856V227.596C517.585 229.001 517.903 230.021 518.537 230.656C519.217 231.245 520.351 231.54 521.937 231.54H526.697V238H520.577C517.087 238 514.412 237.184 512.553 235.552C510.695 233.92 509.765 231.268 509.765 227.596V206.856H505.345V200.532H509.765V191.216H517.585V200.532H526.697V206.856H517.585ZM541.594 205.972C542.728 204.068 544.224 202.595 546.082 201.552C547.986 200.464 550.23 199.92 552.814 199.92V207.944H550.842C547.805 207.944 545.493 208.715 543.906 210.256C542.365 211.797 541.594 214.472 541.594 218.28V238H533.842V200.532H541.594V205.972ZM593.872 200.532V238H586.12V233.58C584.896 235.121 583.287 236.345 581.292 237.252C579.343 238.113 577.257 238.544 575.036 238.544C572.089 238.544 569.437 237.932 567.08 236.708C564.768 235.484 562.932 233.671 561.572 231.268C560.257 228.865 559.6 225.964 559.6 222.564V200.532H567.284V221.408C567.284 224.763 568.123 227.347 569.8 229.16C571.477 230.928 573.767 231.812 576.668 231.812C579.569 231.812 581.859 230.928 583.536 229.16C585.259 227.347 586.12 224.763 586.12 221.408V200.532H593.872ZM601.516 219.232C601.516 215.379 602.287 212.001 603.828 209.1C605.415 206.153 607.591 203.887 610.356 202.3C613.121 200.713 616.295 199.92 619.876 199.92C624.409 199.92 628.149 201.008 631.096 203.184C634.088 205.315 636.105 208.375 637.148 212.364H628.784C628.104 210.505 627.016 209.055 625.52 208.012C624.024 206.969 622.143 206.448 619.876 206.448C616.703 206.448 614.164 207.581 612.26 209.848C610.401 212.069 609.472 215.197 609.472 219.232C609.472 223.267 610.401 226.417 612.26 228.684C614.164 230.951 616.703 232.084 619.876 232.084C624.364 232.084 627.333 230.112 628.784 226.168H637.148C636.06 229.976 634.02 233.013 631.028 235.28C628.036 237.501 624.319 238.612 619.876 238.612C616.295 238.612 613.121 237.819 610.356 236.232C607.591 234.6 605.415 232.333 603.828 229.432C602.287 226.485 601.516 223.085 601.516 219.232ZM653.917 206.856V227.596C653.917 229.001 654.235 230.021 654.869 230.656C655.549 231.245 656.683 231.54 658.269 231.54H663.029V238H656.909C653.419 238 650.744 237.184 648.885 235.552C647.027 233.92 646.097 231.268 646.097 227.596V206.856H641.677V200.532H646.097V191.216H653.917V200.532H663.029V206.856H653.917ZM674.118 195.568C672.713 195.568 671.534 195.092 670.582 194.14C669.63 193.188 669.154 192.009 669.154 190.604C669.154 189.199 669.63 188.02 670.582 187.068C671.534 186.116 672.713 185.64 674.118 185.64C675.478 185.64 676.634 186.116 677.586 187.068C678.538 188.02 679.014 189.199 679.014 190.604C679.014 192.009 678.538 193.188 677.586 194.14C676.634 195.092 675.478 195.568 674.118 195.568ZM677.926 200.532V238H670.174V200.532H677.926ZM704.356 238.612C700.82 238.612 697.624 237.819 694.768 236.232C691.912 234.6 689.668 232.333 688.036 229.432C686.404 226.485 685.588 223.085 685.588 219.232C685.588 215.424 686.427 212.047 688.104 209.1C689.781 206.153 692.071 203.887 694.972 202.3C697.873 200.713 701.115 199.92 704.696 199.92C708.277 199.92 711.519 200.713 714.42 202.3C717.321 203.887 719.611 206.153 721.288 209.1C722.965 212.047 723.804 215.424 723.804 219.232C723.804 223.04 722.943 226.417 721.22 229.364C719.497 232.311 717.14 234.6 714.148 236.232C711.201 237.819 707.937 238.612 704.356 238.612ZM704.356 231.88C706.351 231.88 708.209 231.404 709.932 230.452C711.7 229.5 713.128 228.072 714.216 226.168C715.304 224.264 715.848 221.952 715.848 219.232C715.848 216.512 715.327 214.223 714.284 212.364C713.241 210.46 711.859 209.032 710.136 208.08C708.413 207.128 706.555 206.652 704.56 206.652C702.565 206.652 700.707 207.128 698.984 208.08C697.307 209.032 695.969 210.46 694.972 212.364C693.975 214.223 693.476 216.512 693.476 219.232C693.476 223.267 694.496 226.395 696.536 228.616C698.621 230.792 701.228 231.88 704.356 231.88ZM750.371 199.92C753.318 199.92 755.947 200.532 758.259 201.756C760.617 202.98 762.453 204.793 763.767 207.196C765.082 209.599 765.739 212.5 765.739 215.9V238H758.055V217.056C758.055 213.701 757.217 211.14 755.539 209.372C753.862 207.559 751.573 206.652 748.671 206.652C745.77 206.652 743.458 207.559 741.735 209.372C740.058 211.14 739.219 213.701 739.219 217.056V238H731.467V200.532H739.219V204.816C740.489 203.275 742.098 202.073 744.047 201.212C746.042 200.351 748.15 199.92 750.371 199.92ZM789.227 238.612C786.281 238.612 783.629 238.091 781.271 237.048C778.959 235.96 777.123 234.509 775.763 232.696C774.403 230.837 773.678 228.775 773.587 226.508H781.611C781.747 228.095 782.495 229.432 783.855 230.52C785.261 231.563 787.006 232.084 789.091 232.084C791.267 232.084 792.945 231.676 794.123 230.86C795.347 229.999 795.959 228.911 795.959 227.596C795.959 226.191 795.279 225.148 793.919 224.468C792.605 223.788 790.497 223.04 787.595 222.224C784.785 221.453 782.495 220.705 780.727 219.98C778.959 219.255 777.418 218.144 776.103 216.648C774.834 215.152 774.199 213.18 774.199 210.732C774.199 208.737 774.789 206.924 775.967 205.292C777.146 203.615 778.823 202.3 780.999 201.348C783.221 200.396 785.759 199.92 788.615 199.92C792.877 199.92 796.299 201.008 798.883 203.184C801.513 205.315 802.918 208.239 803.099 211.956H795.347C795.211 210.279 794.531 208.941 793.307 207.944C792.083 206.947 790.429 206.448 788.343 206.448C786.303 206.448 784.739 206.833 783.651 207.604C782.563 208.375 782.019 209.395 782.019 210.664C782.019 211.661 782.382 212.5 783.107 213.18C783.833 213.86 784.717 214.404 785.759 214.812C786.802 215.175 788.343 215.651 790.383 216.24C793.103 216.965 795.325 217.713 797.047 218.484C798.815 219.209 800.334 220.297 801.603 221.748C802.873 223.199 803.53 225.125 803.575 227.528C803.575 229.659 802.986 231.563 801.807 233.24C800.629 234.917 798.951 236.232 796.775 237.184C794.645 238.136 792.129 238.612 789.227 238.612Z" fill="#FFAA00"/>
</svg>
